<svg xmlns="http://www.w3.org/2000/svg" xmlns:xlink="http://www.w3.org/1999/xlink" viewBox="0 0 246.49 269.25"><defs><style>.a,.b,.c{fill:none;}.b{clip-path:url(#a);}.b,.c{clip-rule:evenodd;}.c{clip-path:url(#b);}.d{clip-path:url(#l);}.e{fill:#2d7ad3;}.f{clip-path:url(#m);}.g{clip-path:url(#n);}.h{clip-path:url(#o);}.i{clip-path:url(#p);}.j{fill:#ee4e71;}.k{clip-path:url(#q);}.l{fill:#e69733;}.m{clip-path:url(#r);}.n{clip-path:url(#s);}.o{fill:#fbd40b;}.p{clip-path:url(#t);}.q{clip-path:url(#u);}.r{clip-path:url(#v);}.s{clip-path:url(#w);}.t{fill:#1cc5fc;}</style><clipPath id="a"><rect class="a" x="233.46" y="145.04" width="324" height="324"/></clipPath><clipPath id="b"><rect class="a" x="233.46" y="145.04" width="324" height="324"/></clipPath><clipPath id="l" transform="translate(-272.37 -169.95)"><path class="b" d="M297,400.61a7.9,7.9,0,0,0,3.36-.66,11.57,11.57,0,0,0,2.94-2.1l2.43,2.5a11.19,11.19,0,0,1-8.62,3.94,11.56,11.56,0,0,1-8.42-3.26,11.86,11.86,0,0,1,.06-16.58,11.82,11.82,0,0,1,8.61-3.33A11.26,11.26,0,0,1,306,385l-2.4,2.62a10.48,10.48,0,0,0-3-2.14,8.47,8.47,0,0,0-3.34-.61,8,8,0,0,0-5.7,2.19,7.39,7.39,0,0,0-2.3,5.6,7.73,7.73,0,0,0,2.29,5.7,7.41,7.41,0,0,0,5.42,2.29Zm29.51-1.66L324.26,404h-4l9.86-22.37h4L344,404h-4l-2.24-5.09Zm9.66-3.49-4.06-9.22L328,395.46Zm40.68-13.79h3.78V404h-4.1l-12.67-16.32V404h-3.78V381.67h3.78l13,16.7v-16.7ZM403,398.95,400.76,404h-4l9.86-22.37h4L420.47,404h-4l-2.24-5.09Zm9.66-3.49-4.06-9.22-4.06,9.22ZM453.5,384.6a10.43,10.43,0,0,1,3.23,8.14A11,11,0,0,1,453.6,401q-3.14,3-9.6,3h-7.42V381.67h7.68q6,0,9.25,2.93Zm-.58,8.24q0-7.68-8.8-7.68h-3.78v15.33h4.19a9,9,0,0,0,6.22-1.94,7.28,7.28,0,0,0,2.16-5.71Zm24.84,6.11L475.52,404h-4l9.86-22.37h4L495.24,404h-4L489,398.95Zm9.66-3.49-4.06-9.22-4.06,9.22Z"/></clipPath><clipPath id="m" transform="translate(-272.37 -169.95)"><path class="b" d="M362.1,425.52a2.79,2.79,0,0,0,.6-1.66,1.87,1.87,0,0,0-.64-1.43,2.3,2.3,0,0,0-1.62-.59,3.34,3.34,0,0,0-2.86,1.76l-1.9-1.1a7,7,0,0,1,2-2.08,5.28,5.28,0,0,1,2.86-.7,4.63,4.63,0,0,1,3.07,1.11,3.75,3.75,0,0,1,1.32,3,4.09,4.09,0,0,1-.56,2.06,13.88,13.88,0,0,1-2.06,2.52l-3.28,3.34h6.34V434h-9.56v-2l4.24-4.26a22.57,22.57,0,0,0,2-2.26ZM377.92,427a7.53,7.53,0,0,0,.83,3.78,2.78,2.78,0,0,0,2.59,1.44,2.74,2.74,0,0,0,2.57-1.43,9.27,9.27,0,0,0,0-7.58,2.74,2.74,0,0,0-2.57-1.43,2.78,2.78,0,0,0-2.59,1.44,7.53,7.53,0,0,0-.83,3.78Zm-2.28,0a8.83,8.83,0,0,1,1.42-5.27,5.63,5.63,0,0,1,8.56,0,10.49,10.49,0,0,1,0,10.54,5.63,5.63,0,0,1-8.56,0,8.83,8.83,0,0,1-1.42-5.27Zm21.16-6.9h5.08v14h-2.24V422.16H396.8v-2.1Zm22.12,1.86a3.11,3.11,0,0,0-2.74,1.26,5.94,5.94,0,0,0-.9,3.4,5,5,0,0,1,1.44-1.05,4.43,4.43,0,0,1,2.08-.49,4.31,4.31,0,0,1,3.15,1.25,4.45,4.45,0,0,1,1.27,3.32,4.31,4.31,0,0,1-1.37,3.33,4.9,4.9,0,0,1-3.45,1.26,4.64,4.64,0,0,1-4.64-3,10,10,0,0,1-.72-3.88,12,12,0,0,1,.46-3.6,5.82,5.82,0,0,1,1.26-2.28,5.08,5.08,0,0,1,3.83-1.64,6.56,6.56,0,0,1,4.11,1.42L421.52,423a4.5,4.5,0,0,0-1.23-.72,3.63,3.63,0,0,0-1.37-.32Zm-2.45,5.87a2.15,2.15,0,0,0-.81,1.74,2.5,2.5,0,0,0,.78,1.84,2.68,2.68,0,0,0,2,.77,2.85,2.85,0,0,0,2-.69,2.25,2.25,0,0,0,.78-1.76,2.52,2.52,0,0,0-2.65-2.57,3.06,3.06,0,0,0-2,.67Z"/></clipPath><clipPath id="n" transform="translate(-272.37 -169.95)"><path class="b" d="M300.67,194.06q4.36,1.55,6.57,7.37t-.16,9.79q-2.37,4-9.32,6.62l-4.17,1.58,3.32,8.75-7,2.65L278,199.45l11.09-4.2q7.23-2.74,11.59-1.19Zm-.46,14.29a6.45,6.45,0,0,0-.31-4.61,4.68,4.68,0,0,0-3.1-3.24,9.63,9.63,0,0,0-5.53.79l-4,1.51,4,10.55,4.71-1.79q3.5-1.33,4.22-3.22Zm47.6,6.91-7.31,1.62-2.86-12.94-15.72-17.32,7.92-1.75,9.77,10.62L344,181.74l7.92-1.75-7,22.33,2.86,12.94Zm43.29-10.57a11,11,0,0,0,8.64-5.09l5.19,4.54q-5.17,6.87-12.9,7.5a17.52,17.52,0,0,1-13.12-3.84A17.73,17.73,0,0,1,377,183.06a17.22,17.22,0,0,1,12.06-6,17.72,17.72,0,0,1,14.29,5.15l-4.21,5.64a10.91,10.91,0,0,0-9.16-3.69,10.29,10.29,0,0,0-7,3.34,9.62,9.62,0,0,0-2.39,7.66,10.15,10.15,0,0,0,3.43,7.26,9.35,9.35,0,0,0,7.07,2.27Zm57.35-14.75a9.5,9.5,0,0,0-14.12-1,11.58,11.58,0,0,0-1.07,15.25,9.54,9.54,0,0,0,14.12,1,11.58,11.58,0,0,0,1.07-15.25Zm-8.84,24.4a17.24,17.24,0,0,1-12.15-5.84,17.56,17.56,0,0,1,1.74-24.66,18.28,18.28,0,0,1,25,1.76,17.56,17.56,0,0,1-1.74,24.66,17.24,17.24,0,0,1-12.85,4.08ZM506.37,197l7,2.53-11.32,31.58-7-2.53-8-25.18L480,223.22l-7-2.53,11.32-31.58,6.6,2.37,8.21,25.89L506.37,197Z"/></clipPath><clipPath id="o" transform="translate(-272.37 -169.95)"><rect class="a" x="380.46" y="356.04" width="20" height="10"/></clipPath><clipPath id="p" transform="translate(-272.37 -169.95)"><path class="b" d="M341.22,260.53c-.42-2.73,1.18-3.83,3.57-2.45l79,45.51L355.91,356l-14.69-95.46Z"/></clipPath><clipPath id="q" transform="translate(-272.37 -169.95)"><path class="c" d="M414.91,319l73.75,35.81c2.49,1.21,2.26,2.19-.51,2.19H352.46l62.45-38Z"/></clipPath><clipPath id="r" transform="translate(-272.37 -169.95)"><path class="b" d="M364.71,319,291,354.85c-2.49,1.21-2.26,2.19.51,2.19H427.16l-62.45-38Z"/></clipPath><clipPath id="s" transform="translate(-272.37 -169.95)"><path class="b" d="M308.21,305c-.42-2.72,1.12-3.72,3.44-2.21L395.23,357H316.14L308.21,305Z"/></clipPath><clipPath id="t" transform="translate(-272.37 -169.95)"><path class="b" d="M385.46,357h79.09L472.48,305c.42-2.72-1.12-3.72-3.44-2.21L385.46,357Z"/></clipPath><clipPath id="u" transform="translate(-272.37 -169.95)"><path class="b" d="M440.13,260.4c.34-2.74-1.31-3.81-3.67-2.4l-76,45.45,67.83,52.39,11.84-95.44Z"/></clipPath><clipPath id="v" transform="translate(-272.37 -169.95)"><path class="b" d="M388.42,231.91c1.13-2.52,2.95-2.52,4.08,0l56,125.12h-116l56-125.12Z"/></clipPath><clipPath id="w" transform="translate(-272.37 -169.95)"><path class="b" d="M392.75,232.63c0,.12,55.74,124.4,55.74,124.4l-30.68-10.81c-15.11-5.33-27.36-22.63-27.36-38.67V230s1.21-.3,2.3,2.59Z"/></clipPath></defs><title>pycon-logo</title><g class="d"><rect class="e" x="7.97" y="206.17" width="219.9" height="33.17"/></g><g class="f"><rect class="e" x="78.31" y="244.77" width="77.54" height="24.48"/></g><g class="g"><rect class="e" x="362.83" y="82.18" width="65.58" height="245.38" transform="translate(-88.5 426.9) rotate(-89)"/></g><g class="h"><rect class="e" x="103.09" y="181.09" width="30" height="20"/></g><g class="i"><rect class="j" x="63.78" y="82.53" width="92.59" height="108.51"/></g><g class="k"><rect class="l" x="75.09" y="144.09" width="147.92" height="48"/></g><g class="m"><rect class="l" x="11.86" y="144.09" width="147.92" height="48"/></g><g class="n"><rect class="o" x="30.77" y="127.11" width="97.09" height="64.98"/></g><g class="p"><rect class="o" x="108.09" y="127.11" width="97.09" height="64.98"/></g><g class="q"><rect class="j" x="83.09" y="82.43" width="89.72" height="108.47"/></g><g class="r"><rect class="e" x="55.09" y="55.07" width="126" height="137.01"/></g><g class="s"><rect class="t" x="113.09" y="55.09" width="68.04" height="137"/></g></svg>